<svg width="180" height="180" viewBox="0 0 100 100" fill="none" xmlns="http://www.w3.org/2000/svg">
  <!-- SabiFlix "woven motion" symbol -->
  <path d="M16 50 C15 66 26 82 44 85.5 C61 89 76 81 79 68 C81 58 72 52 60 50.5 C46 49 18 36 16 50 Z" fill="#F2921D"/>
  <path d="M16 50 C15 66 26 82 44 85.5 C61 89 76 81 79 68 C81 58 72 52 60 50.5 C46 49 18 36 16 50 Z" fill="#F2921D" transform="rotate(180 50 50)"/>
  <g transform="rotate(-33 50 50)">
    <rect x="16.5" y="42.6" width="67" height="14.8" rx="5.4" fill="#F5F1EA"/>
    <rect x="18" y="44.1" width="64" height="11.8" rx="4.2" fill="#2B2A27"/>
    <rect x="24" y="46.3" width="4" height="2.6" rx="0.8" fill="#FAF7F1"/>
    <rect x="33.4" y="46.3" width="4" height="2.6" rx="0.8" fill="#FAF7F1"/>
    <rect x="42.8" y="46.3" width="4" height="2.6" rx="0.8" fill="#FAF7F1"/>
    <rect x="52.2" y="46.3" width="4" height="2.6" rx="0.8" fill="#FAF7F1"/>
    <rect x="61.6" y="46.3" width="4" height="2.6" rx="0.8" fill="#FAF7F1"/>
    <rect x="71" y="46.3" width="4" height="2.6" rx="0.8" fill="#FAF7F1"/>
  </g>
</svg>